<svg width="200" height="42" viewBox="0 0 200 42" fill="none" xmlns="http://www.w3.org/2000/svg">
  <!-- Headset icon -->
  <path d="M21 8C14.373 8 9 13.373 9 20v4c0 1.1.9 2 2 2h2c1.1 0 2-.9 2-2v-4c0-1.1-.9-2-2-2h-1.174C12.89 13.71 16.53 10.5 21 10.5s8.11 3.21 9.174 7.5H29c-1.1 0-2 .9-2 2v4c0 1.1.9 2 2 2h1c0 2.21-1.79 4-4 4h-3c-.55 0-1 .45-1 1s.45 1 1 1h3c3.31 0 6-2.69 6-6h1c1.1 0 2-.9 2-2v-4c0-6.627-5.373-12-12-12z" fill="#0085DB"/>
  <!-- Pulse wave -->
  <path d="M16 20h2l1.5-3 2 6 2-4 1.5 1h2" stroke="#5AC8FA" stroke-width="1.5" stroke-linecap="round" stroke-linejoin="round" fill="none"/>
  <!-- Text: CallFlow -->
  <text x="46" y="28" font-family="Segoe UI, Arial, sans-serif" font-weight="700" font-size="22" fill="#111C2D">Call<tspan fill="#0085DB">Flow</tspan></text>
</svg>
